<svg width="14" height="14" viewBox="0 0 14 14" fill="none" xmlns="http://www.w3.org/2000/svg">
<path fill-rule="evenodd" clip-rule="evenodd" d="M2.83969 1.40178C2.71582 1.40151 2.5964 1.41558 2.48293 1.44233C2.32738 1.09825 2.1219 0.78956 1.88821 0.555025C1.49156 0.156954 0.865982 0 0 0V1.4C0.529017 1.4 0.833442 1.47638 0.901793 1.54497C1.16543 1.80955 1.395 2.34714 1.395 2.8L1.40201 2.89899L2.08547 7.70036C0.941873 7.7599 0.0559378 8.65118 0.000856934 9.76531L0 10.5C0.0675328 11.6508 0.95052 12.536 2.05291 12.5989L2.21125 12.5991C2.49826 13.4152 3.27358 14 4.185 14C5.09609 14 5.87118 13.4156 6.15843 12.6H7.79157C8.07882 13.4156 8.85391 14 9.765 14C10.9207 14 11.8575 13.0598 11.8575 11.9C11.8575 10.7402 10.9207 9.8 9.765 9.8C8.85391 9.8 8.07882 10.3844 7.79157 11.2H6.15843C5.87118 10.3844 5.09609 9.8 4.185 9.8C3.27391 9.8 2.49882 10.3844 2.21157 11.2H2.0925C1.73678 11.1786 1.41769 10.8587 1.39375 10.4581L1.395 9.8C1.41381 9.43692 1.73071 9.11888 2.12706 9.09914L3.50402 9.09948L3.514 9.1H10.544L10.647 9.06721C11.1758 8.8988 11.5992 8.49914 11.7996 7.98177L11.8731 7.83581L12.1118 7.36111C12.3588 6.86974 12.6058 6.37753 12.8465 5.89666C13.4361 4.71875 13.8069 3.97016 13.889 3.78634C14.3106 2.84232 13.4565 2.11572 12.5834 2.10025L2.83969 1.40178ZM10.3017 7.7H3.56623C3.52144 7.68751 3.48732 7.64943 3.48064 7.60201L2.79716 2.80051L12.4806 3.49645C12.3112 3.84323 12.0032 4.46261 11.6 5.26826L11.5899 5.28845C11.3597 5.7483 11.113 6.23984 10.8664 6.73055L10.6279 7.20464L10.5375 7.38419L10.5035 7.46355C10.4671 7.56543 10.3947 7.64915 10.3017 7.7ZM9.765 12.6C10.1502 12.6 10.4625 12.2866 10.4625 11.9C10.4625 11.5134 10.1502 11.2 9.765 11.2C9.37979 11.2 9.0675 11.5134 9.0675 11.9C9.0675 12.2866 9.37979 12.6 9.765 12.6ZM4.88251 11.9C4.88251 12.2866 4.57023 12.6 4.18501 12.6C3.79979 12.6 3.48751 12.2866 3.48751 11.9C3.48751 11.5134 3.79979 11.2 4.18501 11.2C4.57023 11.2 4.88251 11.5134 4.88251 11.9Z" fill="white"/>
</svg>
