<svg width="20" height="20" viewBox="0 0 20 20" fill="none" xmlns="http://www.w3.org/2000/svg">
<path fill-rule="evenodd" clip-rule="evenodd" d="M2.00012 0.000244141H18.0001C19.1047 0.000244141 20.0001 0.895675 20.0001 2.00024V18.0002C20.0001 19.1048 19.1047 20.0002 18.0001 20.0002H2.00012C0.895553 20.0002 0.00012207 19.1048 0.00012207 18.0002V2.00024C0.00012207 0.895675 0.895553 0.000244141 2.00012 0.000244141ZM2.00012 2.00024V18.0002H18.0001V2.00024H2.00012ZM9.13318 10.0046H11.0001V16.0002H13.0001V10.0046H14.9825V8.00464H13.0001V7.00024C13.0001 6.44796 13.4478 6.00024 14.0001 6.00024H15.0001V4.00024H14.0001C12.3433 4.00024 11.0001 5.34339 11.0001 7.00024V8.00464H9.13318V10.0046Z" fill="white"/>
</svg>
