<svg width="12" height="18" viewBox="0 0 11.44 17.14" fill="#FFFFFF" xmlns="http://www.w3.org/2000/svg">
  <path class="cls-1" d="M12,2.68A4.43,4.43,0,0,0,7.43,7,4.43,4.43,0,0,0,12,11.25,4.43,4.43,0,0,0,16.57,7,4.43,4.43,0,0,0,12,2.68Zm1.41,6A2,2,0,1,1,14,7.25,2,2,0,0,1,13.41,8.66Z" transform="translate(-6.28 -2.68)"/><path class="cls-1" d="M17.38,19.51a1.24,1.24,0,0,1-.81.31,1.2,1.2,0,0,1-.8-.31L12,16,8.23,19.51a1.2,1.2,0,0,1-.8.31,1.24,1.24,0,0,1-.81-.31,1,1,0,0,1,0-1.52l3-2.76A9.28,9.28,0,0,1,6.78,14a1,1,0,0,1-.28-1.49,1.15,1.15,0,0,1,.94-.46,1.21,1.21,0,0,1,.65.2,7.27,7.27,0,0,0,7.83,0,1.15,1.15,0,0,1,.65-.19,1.16,1.16,0,0,1,.94.46A1,1,0,0,1,17.22,14a9.43,9.43,0,0,1-2.79,1.23L17.38,18A1,1,0,0,1,17.38,19.51Z" transform="translate(-6.28 -2.68)"/>
</svg>
