<svg width="16" height="17" viewBox="0 0 16 17" fill="none" xmlns="http://www.w3.org/2000/svg">
<g opacity="0.8">
<path fill-rule="evenodd" clip-rule="evenodd" d="M8 16.3855C3.58172 16.3855 0 12.8038 0 8.3855C0 3.96722 3.58172 0.385498 8 0.385498C12.4183 0.385498 16 3.96722 16 8.3855C16 12.8038 12.4183 16.3855 8 16.3855ZM13.3814 12.1125C14.1154 11.0548 14.5455 9.77039 14.5455 8.3855C14.5455 4.77054 11.615 1.84004 8 1.84004C4.38504 1.84004 1.45454 4.77054 1.45454 8.3855C1.45454 9.77039 1.88464 11.0548 2.61855 12.1125C3.43681 11.0317 5.35927 10.5676 7.99761 10.5673C6.37029 10.5662 5.09091 9.42237 5.09091 6.93095C5.09091 5.29878 6.23935 4.02186 8 4.02186C9.75578 4.02186 10.9091 5.41937 10.9091 7.07641C10.9091 9.46158 9.61316 10.5673 8 10.5673C10.6396 10.5673 12.5629 11.0314 13.3814 12.1125ZM12.338 13.2871C12.1251 12.5218 10.5959 12.0219 8 12.0219C5.40408 12.0219 3.87491 12.5218 3.66205 13.2871C4.81695 14.31 6.33595 14.931 8 14.931C9.66404 14.931 11.1831 14.31 12.338 13.2871ZM6.54546 6.93095C6.54546 8.58132 7.14052 9.11277 8 9.11277C8.85652 9.11277 9.45455 8.60251 9.45455 7.07641C9.45455 6.16762 8.88412 5.47641 8 5.47641C7.07908 5.47641 6.54546 6.06973 6.54546 6.93095Z" fill="white"/>
</g>
</svg>
