<svg width="90" height="90" viewBox="0 0 90 90" fill="none" xmlns="http://www.w3.org/2000/svg">
<path d="M82.111 20.0278H78.7663L78.7696 14.0484C78.7715 10.034 75.5077 6.76632 71.4927 6.76436L46.108 6.75C46.1067 6.75 46.1061 6.75 46.1048 6.75C44.6599 6.75 43.3011 7.31257 42.2791 8.33459L4.38214 46.2315C3.00705 47.6066 2.25 49.4346 2.25 51.3795C2.25 53.3243 3.00705 55.1523 4.38214 56.5274L28.9759 81.1211C30.3953 82.5406 32.2599 83.25 34.1238 83.25C35.9884 83.25 37.8529 82.5406 39.2724 81.1211L63.1326 57.261C63.7852 56.6083 63.7852 55.5504 63.1326 54.8984C62.4799 54.2458 61.422 54.2458 60.7694 54.8984L36.9092 78.7586C35.3736 80.2942 32.8747 80.2942 31.339 78.7586L6.74532 54.1649C6.00132 53.4209 5.59147 52.4315 5.59147 51.3795C5.59147 50.3274 6.00132 49.338 6.74532 48.594L44.6416 10.6978C45.0325 10.3068 45.552 10.0915 46.1048 10.0915H46.1061L71.4908 10.1058C73.6627 10.1065 75.4294 11.8751 75.4281 14.0471L75.4203 28.0473H67.8948C67.2467 28.0473 66.66 27.7823 66.2358 27.3555C66.9348 27.0559 67.59 26.6232 68.1598 26.0535C70.5608 23.6518 70.5608 19.7452 68.1598 17.3441C65.7581 14.9425 61.8514 14.9425 59.4498 17.3441C57.0487 19.7452 57.0487 23.6518 59.4498 26.0535C60.34 26.9437 61.4377 27.503 62.5883 27.7334C63.406 29.8681 65.4755 31.3887 67.8948 31.3887H75.4183L75.4138 39.3978C75.4138 39.9506 75.1984 40.4694 74.8075 40.8597L70.2208 45.4471C69.5681 46.0997 69.5681 47.1576 70.2208 47.8102C70.8728 48.4622 71.9307 48.4622 72.5833 47.8102L77.1706 43.2229C78.1913 42.2015 78.7546 40.844 78.7552 39.3998L78.7598 31.3887H82.111C85.243 31.3887 87.7915 28.8409 87.7915 25.7083C87.7915 22.5763 85.243 20.0278 82.111 20.0278V20.0278ZM61.8129 19.7067C62.3625 19.1572 63.0836 18.883 63.8054 18.883C64.5266 18.883 65.2477 19.1578 65.7972 19.7067C65.9708 19.8809 66.1144 20.0734 66.2332 20.2764C64.3993 20.8383 62.9583 22.3061 62.4316 24.1556C62.2104 24.0323 62.0009 23.8789 61.8129 23.691C60.7146 22.5919 60.7146 20.805 61.8129 19.7067V19.7067ZM82.111 28.0473H78.7617L78.7644 23.3692H82.111C83.4006 23.3692 84.4501 24.4187 84.4501 25.7083C84.4501 26.9978 83.4006 28.0473 82.111 28.0473Z" fill="#CA2C37"/>
<path d="M29.2179 48.9034C29.4235 49.6428 30.0951 50.1264 30.826 50.1264C30.9748 50.1264 31.1256 50.1068 31.275 50.0651L48.4261 45.2911C49.315 45.0437 49.8352 44.1222 49.5878 43.2333C49.3405 42.3451 48.4196 41.825 47.5301 42.0723L30.379 46.8457C29.4907 47.0937 28.9706 48.0145 29.2179 48.9034V48.9034Z" fill="#CA2C37"/>
<path d="M36.7676 51.1079C35.8369 52.0386 35.3246 53.2753 35.3246 54.5917C35.3246 55.9074 35.8369 57.1441 36.7676 58.0748C37.7283 59.0348 38.9891 59.5151 40.2507 59.5151C41.5122 59.5151 42.7737 59.0348 43.7344 58.0748C45.6551 56.1541 45.6551 53.0286 43.7344 51.1079C41.8137 49.1872 38.6883 49.1872 36.7676 51.1079ZM41.3712 55.7116C40.7532 56.3296 39.7481 56.3296 39.1301 55.7116C38.8305 55.4127 38.6661 55.0146 38.6661 54.591C38.6661 54.1681 38.8312 53.77 39.1301 53.4705C39.4394 53.1618 39.8454 53.0071 40.2507 53.0071C40.6566 53.0071 41.0625 53.1618 41.3712 53.4705C41.9893 54.0885 41.9893 55.0942 41.3712 55.7116Z" fill="#CA2C37"/>
<path d="M44.562 41.1606C46.4827 39.2392 46.4827 36.1144 44.562 34.1938C43.6314 33.2631 42.394 32.7508 41.0783 32.7508C39.7626 32.7508 38.5252 33.2631 37.5952 34.1938C35.6745 36.1144 35.6745 39.2392 37.5952 41.1606C38.5559 42.1206 39.8168 42.6009 41.0783 42.6009C42.3398 42.6009 43.6014 42.1206 44.562 41.1606ZM39.9577 36.5563C40.2573 36.2567 40.6554 36.0923 41.0783 36.0923C41.5019 36.0923 41.9 36.2567 42.1989 36.5563C42.8169 37.1743 42.8169 38.1794 42.1989 38.7974C41.5815 39.4155 40.5758 39.4155 39.9577 38.7974C39.3403 38.1794 39.3403 37.1743 39.9577 36.5563Z" fill="#CA2C37"/>
<path d="M18.8673 45.451C18.2147 44.7984 17.1568 44.7984 16.5042 45.451L11.7569 50.1982C11.4437 50.5115 11.2675 50.9363 11.2675 51.3795C11.2675 51.8226 11.4437 52.2475 11.7569 52.5607L32.9433 73.7471C33.2689 74.0727 33.697 74.2359 34.1245 74.2359C34.552 74.2359 34.9795 74.0727 35.3058 73.7471L66.9818 42.0704C67.6345 41.4177 67.6345 40.3598 66.9818 39.7072L45.7962 18.5215C45.4829 18.2083 45.058 18.032 44.6149 18.032C44.1718 18.032 43.7469 18.2083 43.4336 18.5215L25.9555 35.9996C25.3029 36.6522 25.3029 37.7101 25.9555 38.3628C26.6075 39.0148 27.6654 39.0148 28.3181 38.3628L44.6149 22.0659L63.4381 40.8891L34.1245 70.2026L15.3014 51.3795L18.8673 47.8135C19.5193 47.1609 19.52 46.1036 18.8673 45.451V45.451Z" fill="#CA2C37"/>
<path d="M66.677 49.6833C66.2371 49.6833 65.8064 49.8621 65.4957 50.1728C65.1851 50.4834 65.0063 50.9148 65.0063 51.354C65.0063 51.7932 65.1851 52.2246 65.4957 52.5353C65.8064 52.8459 66.2371 53.0248 66.677 53.0248C67.1162 53.0248 67.5469 52.8459 67.8583 52.5353C68.1689 52.2246 68.3477 51.7932 68.3477 51.354C68.3477 50.9148 68.1689 50.4834 67.8583 50.1728C67.5469 49.8621 67.1162 49.6833 66.677 49.6833Z" fill="#CA2C37"/>
<path d="M23.5916 43.0872C23.9042 42.7765 24.0818 42.3471 24.0818 41.9059C24.0818 41.4667 23.9042 41.0373 23.5916 40.7246C23.281 40.414 22.8516 40.2352 22.411 40.2352C21.9712 40.2352 21.5404 40.414 21.2298 40.7246C20.9185 41.0353 20.7403 41.4667 20.7403 41.9059C20.7403 42.3471 20.9185 42.7765 21.2298 43.0872C21.5417 43.3998 21.9712 43.5766 22.411 43.5766C22.8516 43.5766 23.281 43.3998 23.5916 43.0872Z" fill="#CA2C37"/>
</svg>
